# xmcd CD database file
#
# Track frame offsets:
#	150
#	19800
#	38850
#	58425
#	93375
#	107325
#	125700
#	140250
#	155325
#	166275
#	185100
#	203325
#	230700
#
# Disc length: 4280 seconds
#
# Revision: 0
# Processed by: cddbd v1.5.2PL0 Copyright (c) Steve Scherf et al.
# Submitted via: CDex 1.70beta2
#
DISCID=b110b60d
DTITLE=Augenstern - Best Of
DYEAR=1900
DGENRE=New Age
TTITLE0=Passage To Mind Transfer
TTITLE1=Center Of My Cosmic Heart
TTITLE2=As Clouds Go By
TTITLE3=Rainstar Canyon
TTITLE4=Joy Of This Moment
TTITLE5=Pictures From A Lovely Garden
TTITLE6=Horizon
TTITLE7=Spiral Spirits
TTITLE8=Eyes Of Mona Lisa
TTITLE9=Venus Di Monaco
TTITLE10=Nowhere River
TTITLE11=Sunwind
TTITLE12=Secret Music Of The Planets
EXTD=
EXTT0=
EXTT1=
EXTT2=
EXTT3=
EXTT4=
EXTT5=
EXTT6=
EXTT7=
EXTT8=
EXTT9=
EXTT10=
EXTT11=
EXTT12=
PLAYORDER=
